<?xml version="1.0" encoding="UTF-8" standalone="no"?>
<svg
   version="1.1"
   width="128"
   height="128"
   id="svg9"
   sodipodi:docname="favicon.svg"
   inkscape:version="1.3.2 (091e20ef0f, 2023-11-25)"
   inkscape:export-filename="favicon.png"
   inkscape:export-xdpi="6.3555093"
   inkscape:export-ydpi="6.3555093"
   xmlns:inkscape="http://www.inkscape.org/namespaces/inkscape"
   xmlns:sodipodi="http://sodipodi.sourceforge.net/DTD/sodipodi-0.dtd"
   xmlns="http://www.w3.org/2000/svg"
   xmlns:svg="http://www.w3.org/2000/svg">
  <defs
     id="defs9" />
  <sodipodi:namedview
     id="namedview9"
     pagecolor="#505050"
     bordercolor="#ffffff"
     borderopacity="1"
     inkscape:showpageshadow="0"
     inkscape:pageopacity="0"
     inkscape:pagecheckerboard="1"
     inkscape:deskcolor="#505050"
     inkscape:zoom="0.734375"
     inkscape:cx="250.55319"
     inkscape:cy="228.08511"
     inkscape:window-width="1366"
     inkscape:window-height="683"
     inkscape:window-x="0"
     inkscape:window-y="0"
     inkscape:window-maximized="1"
     inkscape:current-layer="svg9"
     showgrid="false" />
  <path
     d="m 93.129392,90.738512 c 1.726207,1.249938 3.202803,2.903685 4.700429,4.410652 0.237992,0.238415 0.475985,0.476829 0.721188,0.722469 0.625616,0.626966 1.250648,1.254496 1.875401,1.882323 0.64044,0.643311 1.28166,1.28585 1.92282,1.928461 1.2527,1.255873 2.50464,2.512483 3.75599,3.769693 0.004,-0.15631 0.008,-0.31263 0.0117,-0.47367 0.0197,-0.70861 0.0453,-1.41691 0.071,-2.12533 0.006,-0.246 0.0119,-0.492 0.0181,-0.74546 0.009,-0.236438 0.0188,-0.472876 0.0284,-0.716482 0.007,-0.217768 0.0139,-0.435536 0.021,-0.659903 0.13975,-0.703646 0.33719,-0.946974 0.90893,-1.371087 1.0799,-0.11251 1.46462,-0.08286 2.38332,0.529734 0.51856,1.556001 0.34613,3.336088 0.35752,4.968838 0.004,0.46088 0.0116,0.92174 0.0217,1.38253 0.0145,0.66614 0.0203,1.33186 0.0242,1.99814 0.006,0.20503 0.012,0.41007 0.0182,0.62132 -0.004,1.0097 -0.12246,1.57253 -0.68779,2.41708 -1.01678,0.6809 -1.84569,0.70901 -3.02847,0.67905 -0.31964,-10e-4 -0.31964,-10e-4 -0.64574,-0.002 -0.44895,-0.003 -0.89789,-0.008 -1.34676,-0.0171 -0.68641,-0.0131 -1.37231,-0.0163 -2.05883,-0.0178 -0.43705,-0.004 -0.87409,-0.008 -1.31113,-0.0129 -0.2047,-0.001 -0.4094,-0.003 -0.62031,-0.004 -1.822082,-0.0402 -1.822082,-0.0402 -2.63917,-0.62371 -0.370566,-0.74128 -0.331718,-1.29916 -0.264813,-2.11893 0.422819,-0.57341 0.667035,-0.76929 1.370807,-0.90912 0.217724,-0.007 0.435448,-0.0139 0.659771,-0.021 0.236393,-0.009 0.472783,-0.0188 0.716335,-0.0285 0.36893,-0.009 0.36893,-0.009 0.74531,-0.0181 0.24902,-0.009 0.49804,-0.0181 0.75461,-0.0274 0.61459,-0.0218 1.22908,-0.0401 1.84386,-0.0553 -0.15534,-0.15479 -0.31067,-0.30957 -0.47072,-0.46904 -1.46196,-1.45696 -2.92329,-2.91454 -4.383905,-4.37286 -0.750986,-0.74975 -1.502218,-1.499254 -2.254006,-2.248198 -0.725158,-0.722433 -1.44967,-1.445504 -2.173737,-2.16903 -0.276717,-0.276283 -0.553666,-0.552329 -0.830848,-0.828143 -0.387416,-0.385579 -0.774003,-0.77197 -1.1604,-1.158569 -0.220517,-0.219974 -0.441035,-0.439949 -0.668234,-0.66659 -0.630228,-0.670155 -0.756869,-0.921527 -0.835368,-1.844084 0.0662,-0.811154 0.0662,-0.811154 0.364118,-1.307778 0.787606,-0.47266 1.175282,-0.469731 2.085401,-0.297976 z"
     fill="#000000"
     id="path2"
     style="fill:#007bff;fill-opacity:1;stroke-width:0.26484" />
  <path
     d="m 36.459435,90.738512 c 0.496524,0.297976 0.496524,0.297976 0.794439,0.7946 0.165508,0.71183 0.165508,0.71183 0,1.5892 -1.249681,1.726557 -2.903094,3.203453 -4.409754,4.701383 -0.357551,0.357062 -0.357551,0.357062 -0.722325,0.721336 -0.626836,0.625742 -1.254241,1.2509 -1.881938,1.875779 -0.643183,0.64057 -1.285592,1.28192 -1.928074,1.92321 -1.255607,1.25296 -2.511972,2.50515 -3.768928,3.75676 0.156279,0.004 0.312558,0.008 0.473573,0.0117 0.708476,0.0197 1.416622,0.0453 2.124904,0.071 0.24595,0.006 0.4919,0.0119 0.745302,0.0181 0.236394,0.009 0.472787,0.0188 0.71634,0.0285 0.326586,0.0104 0.326586,0.0104 0.659771,0.021 0.703502,0.13977 0.94678,0.33725 1.370807,0.90911 0.112489,1.08012 0.08284,1.46492 -0.529626,2.3838 -1.555686,0.51867 -3.335403,0.3462 -4.967828,0.3576 -0.460786,0.004 -0.921554,0.0116 -1.382251,0.0217 -0.666006,0.0145 -1.33159,0.0203 -1.997733,0.0242 -0.204995,0.006 -0.40999,0.012 -0.621197,0.0182 -1.0095,-0.004 -1.572212,-0.12249 -2.416587,-0.68793 -0.680757,-1.01699 -0.708872,-1.84606 -0.678907,-3.02908 6.09e-4,-0.21315 0.0012,-0.42628 0.0019,-0.64588 0.0026,-0.44904 0.0083,-0.89807 0.01707,-1.34703 0.0131,-0.68655 0.01628,-1.37259 0.01778,-2.05925 0.0037,-0.43714 0.008,-0.87427 0.01293,-1.31139 0.0014,-0.20475 0.0028,-0.4095 0.0043,-0.62044 0.04021,-1.822451 0.04021,-1.822451 0.623583,-2.639705 0.741132,-0.370641 1.298904,-0.331786 2.118503,-0.264867 0.573288,0.422905 0.769129,0.667169 0.908937,1.371087 0.0069,0.217769 0.01387,0.435537 0.02101,0.659902 0.0094,0.236441 0.01878,0.47288 0.02845,0.716483 0.006,0.246 0.01195,0.492 0.0181,0.74546 0.01357,0.37361 0.01357,0.37361 0.02741,0.75476 0.02184,0.61472 0.04015,1.22933 0.05534,1.84424 0.154751,-0.15537 0.309502,-0.31075 0.468942,-0.47082 1.456662,-1.46225 2.913956,-2.92388 4.371968,-4.384794 0.749601,-0.751138 1.498953,-1.50252 2.247748,-2.254463 0.722285,-0.725306 1.445211,-1.449965 2.16859,-2.174179 0.276223,-0.276772 0.552217,-0.553778 0.827974,-0.831017 0.385499,-0.387494 0.771813,-0.774157 1.158334,-1.160634 0.21993,-0.220563 0.43986,-0.441126 0.666452,-0.66837 0.87624,-0.824368 1.465154,-0.866446 2.654699,-0.769321 z"
     fill="#000000"
     id="path3"
     style="fill:#007bff;fill-opacity:1;stroke-width:0.26484" />
  <path
     d="m 102.86385,18.072323 c 0.46079,-0.0044 0.92156,-0.01162 1.38225,-0.02172 0.66601,-0.01452 1.33159,-0.0203 1.99774,-0.02418 0.30749,-0.009 0.30749,-0.009 0.62119,-0.01819 1.0095,0.0039 1.57221,0.122487 2.41659,0.687928 0.68076,1.016989 0.70887,1.846065 0.67891,3.029089 -8e-4,0.319703 -8e-4,0.319703 -0.002,0.645867 -0.003,0.44904 -0.008,0.898072 -0.0171,1.347034 -0.0131,0.686545 -0.0163,1.372589 -0.0178,2.059248 -0.004,0.437139 -0.008,0.874272 -0.0129,1.3114 -0.002,0.307113 -0.002,0.307113 -0.004,0.620429 -0.0402,1.822452 -0.0402,1.822452 -0.62359,2.639706 -0.74113,0.370641 -1.2989,0.331788 -2.11851,0.264867 -0.57328,-0.422905 -0.76912,-0.66717 -0.90893,-1.371085 -0.007,-0.217768 -0.0139,-0.435536 -0.021,-0.659905 -0.009,-0.236438 -0.0188,-0.47288 -0.0284,-0.716482 -0.009,-0.369002 -0.009,-0.369002 -0.0181,-0.745457 -0.009,-0.249073 -0.0181,-0.498145 -0.0274,-0.754767 -0.0219,-0.614713 -0.0401,-1.229328 -0.0553,-1.844236 -0.15475,0.15537 -0.3095,0.31074 -0.46894,0.470819 -1.45667,1.462259 -2.91396,2.923886 -4.37197,4.384798 -0.7496,0.751137 -1.498955,1.502519 -2.247748,2.254462 -0.722285,0.725303 -1.445211,1.449963 -2.16859,2.174177 -0.276226,0.276772 -0.552217,0.553778 -0.827974,0.831016 -0.385501,0.387495 -0.771816,0.77416 -1.158337,1.160635 -0.219927,0.220563 -0.439857,0.441125 -0.666452,0.668372 -0.670019,0.630354 -0.921339,0.757021 -1.843709,0.835536 -0.810989,-0.06621 -0.810989,-0.06621 -1.307514,-0.364192 -0.472564,-0.787767 -0.469635,-1.17552 -0.297914,-2.085825 1.249681,-1.726557 2.903093,-3.203453 4.409754,-4.701382 0.238369,-0.238042 0.476735,-0.47608 0.722325,-0.721336 0.626836,-0.62574 1.254241,-1.250902 1.881938,-1.875778 0.643182,-0.640577 1.285592,-1.281927 1.928073,-1.923208 1.255608,-1.252958 2.511968,-2.505154 3.768928,-3.75676 -0.15628,-0.0039 -0.31256,-0.0077 -0.47357,-0.0117 -0.70848,-0.01973 -1.41662,-0.04533 -2.12491,-0.07106 -0.24595,-0.006 -0.4919,-0.01195 -0.7453,-0.0181 -0.236392,-0.0094 -0.472782,-0.01877 -0.716339,-0.02846 -0.326586,-0.0104 -0.326586,-0.0104 -0.659771,-0.02101 -0.703501,-0.139781 -0.94678,-0.337256 -1.370806,-0.909121 -0.11249,-1.080111 -0.08284,-1.464914 0.529626,-2.383799 1.555696,-0.518666 3.33542,-0.346197 4.96784,-0.357595 z"
     fill="#000000"
     id="path4"
     style="fill:#007bff;fill-opacity:1;stroke-width:0.26484" />
  <path
     d="m 21.746804,18.0171 c 0.319639,9.27e-4 0.319639,9.27e-4 0.645735,0.0019 0.44895,0.0026 0.89789,0.0083 1.346762,0.01707 0.686406,0.0131 1.372309,0.01628 2.058829,0.01778 0.43705,0.0037 0.874096,0.008 1.311136,0.01293 0.2047,0.0014 0.4094,0.0028 0.620303,0.0043 1.822082,0.04023 1.822082,0.04023 2.63917,0.623719 0.370566,0.741283 0.331718,1.299168 0.264813,2.118933 -0.422819,0.573405 -0.667035,0.769286 -1.370807,0.909122 -0.217724,0.0069 -0.435448,0.01387 -0.659771,0.02101 -0.23639,0.0094 -0.472783,0.01878 -0.71634,0.02846 -0.24595,0.006 -0.4919,0.01195 -0.745302,0.0181 -0.249022,0.009 -0.498044,0.01809 -0.754614,0.02742 -0.614589,0.02184 -1.229079,0.04016 -1.843863,0.05535 0.155339,0.154781 0.310678,0.309563 0.470724,0.469037 1.461963,1.456956 2.92329,2.914546 4.383908,4.372855 0.750983,0.749752 1.502215,1.49926 2.254003,2.248205 0.725158,0.722431 1.44967,1.445504 2.173737,2.169029 0.276717,0.276283 0.553666,0.552329 0.830848,0.828143 0.387416,0.385577 0.774003,0.77197 1.1604,1.158569 0.220517,0.219975 0.441035,0.439948 0.668234,0.666589 0.630228,0.670155 0.756869,0.921524 0.835368,1.844085 -0.0662,0.811153 -0.0662,0.811153 -0.364118,1.307778 -0.787606,0.47266 -1.175282,0.46973 -2.085401,0.297976 -1.726207,-1.249938 -3.202803,-2.903686 -4.700429,-4.410653 -0.237993,-0.238414 -0.475985,-0.476831 -0.721189,-0.722471 -0.625615,-0.626964 -1.250647,-1.254493 -1.875397,-1.882319 -0.640447,-0.643314 -1.281667,-1.285854 -1.922818,-1.928466 -1.252704,-1.255863 -2.504646,-2.512482 -3.755999,-3.769693 -0.0039,0.156311 -0.0077,0.312623 -0.0117,0.473669 -0.01973,0.70862 -0.04532,1.41691 -0.07105,2.125335 -0.009,0.369002 -0.009,0.369002 -0.0181,0.745457 -0.0094,0.236438 -0.01877,0.472879 -0.02845,0.716482 -0.0069,0.217769 -0.01387,0.435537 -0.02101,0.659905 -0.139753,0.703645 -0.337188,0.946973 -0.908936,1.371085 -1.079892,0.112512 -1.464617,0.08286 -2.383316,-0.529734 -0.518562,-1.556001 -0.346127,-3.33608 -0.357523,-4.968835 -0.0044,-0.46088 -0.01162,-0.921742 -0.02172,-1.382531 -0.01452,-0.666141 -0.0203,-1.331861 -0.02418,-1.998141 -0.006,-0.205035 -0.01201,-0.410072 -0.01819,-0.621322 0.0039,-1.009705 0.122462,-1.572531 0.687788,-2.417077 1.016782,-0.680896 1.84569,-0.709016 3.028473,-0.679045 z"
     fill="#000000"
     id="path5"
     style="fill:#007bff;fill-opacity:1;stroke-width:0.26484" />
  <path
     d="m 65.059226,102.65751 c 0.748293,0.74845 0.602786,1.24299 0.614062,2.29185 0.0026,0.18092 0.0053,0.36182 0.008,0.54822 0.0082,0.59905 0.01269,1.19808 0.01716,1.79717 0.005,0.41493 0.01014,0.82986 0.01554,1.24478 0.01361,1.09293 0.0241,2.18587 0.03393,3.27884 0.01059,1.11495 0.02412,2.22986 0.03742,3.34478 0.02566,2.18823 0.04799,4.37647 0.06827,6.56476 0.227006,-0.24856 0.454008,-0.49712 0.687894,-0.75322 0.305589,-0.32304 0.611448,-0.64584 0.917534,-0.96841 0.222994,-0.24634 0.222994,-0.24634 0.450492,-0.49766 0.82418,-0.85733 1.178224,-1.19813 2.396247,-1.34917 0.844091,0.1252 0.844091,0.1252 1.357166,0.40662 0.452851,0.82595 0.380734,1.43869 0.281363,2.36724 -0.461719,0.65016 -0.871104,1.13822 -1.431644,1.68749 -0.147798,0.15023 -0.295598,0.30046 -0.447873,0.45524 -0.312951,0.31543 -0.628269,0.62853 -0.945755,0.93938 -0.483117,0.47529 -0.954712,0.96022 -1.426216,1.447 -0.306241,0.30604 -0.6131,0.61145 -0.920638,0.91618 -0.139671,0.14482 -0.279341,0.28963 -0.423243,0.43884 -0.742146,0.7109 -1.30679,1.10333 -2.349017,1.18256 -1.262043,-0.0959 -1.922719,-0.74055 -2.77226,-1.6214 -0.149826,-0.14846 -0.299652,-0.29692 -0.454016,-0.44987 -0.314071,-0.31385 -0.625523,-0.63036 -0.93444,-0.94928 -0.472723,-0.48618 -0.955149,-0.96085 -1.439664,-1.43523 -0.304757,-0.30718 -0.6089,-0.61497 -0.912362,-0.92342 -0.143958,-0.14106 -0.287915,-0.28213 -0.436237,-0.42747 -0.73159,-0.76915 -0.988128,-1.192 -1.102471,-2.26045 0.107063,-0.85364 0.107063,-0.85364 0.388427,-1.36681 0.839655,-0.46056 1.421661,-0.39862 2.366765,-0.28142 0.709879,0.48539 1.261852,1.08611 1.83714,1.72163 0.155831,0.16422 0.31166,0.32845 0.472214,0.49766 0.38209,0.40391 0.758262,0.81341 1.133214,1.22397 0.0011,-0.23051 0.0019,-0.46103 0.0029,-0.69852 0.01004,-2.17091 0.02508,-4.3417 0.04577,-6.51252 0.01046,-1.11608 0.01899,-2.23212 0.02307,-3.34826 0.004,-1.07685 0.01311,-2.15356 0.02577,-3.23035 0.0039,-0.41111 0.006,-0.82223 0.0062,-1.23334 5.3e-4,-0.57534 0.0078,-1.15024 0.01647,-1.72549 0.0024,-0.32761 0.0047,-0.65522 0.0071,-0.99275 0.137433,-0.79944 0.137433,-0.79944 0.624373,-1.31185 0.808598,-0.39869 1.309354,-0.2581 2.161188,-0.0173 z"
     fill="#000000"
     id="path6"
     style="fill:#007bff;fill-opacity:1;stroke-width:0.26484" />
  <path
     d="m 120.93474,56.040983 c 0.65003,0.461812 1.13799,0.87128 1.68715,1.431934 0.1502,0.14783 0.3004,0.295658 0.45515,0.447967 0.31537,0.313012 0.6284,0.628394 0.93919,0.945947 0.4752,0.483212 0.96003,0.954905 1.44671,1.426503 0.30597,0.306303 0.61132,0.613227 0.91598,0.920825 0.14479,0.139698 0.28958,0.279397 0.43876,0.423328 0.71076,0.742297 1.10311,1.307059 1.18232,2.349494 -0.0959,1.2623 -0.7404,1.92311 -1.62108,2.772823 -0.14842,0.149857 -0.29685,0.299713 -0.44977,0.454108 -0.31379,0.314135 -0.63023,0.62565 -0.94909,0.934633 -0.48608,0.472816 -0.96065,0.95534 -1.43494,1.439952 -0.30711,0.304822 -0.61484,0.609027 -0.92323,0.912548 -0.14104,0.143988 -0.28207,0.287977 -0.42738,0.436326 -0.769,0.731739 -1.19176,0.988332 -2.25999,1.102695 -0.85347,-0.107085 -0.85347,-0.107085 -1.36654,-0.388506 -0.46046,-0.839826 -0.39853,-1.42195 -0.28136,-2.367245 0.48529,-0.710024 1.08589,-1.262109 1.72128,-1.837513 0.16419,-0.155861 0.32839,-0.311725 0.49756,-0.47231 0.40383,-0.382169 0.81325,-0.758417 1.22372,-1.133444 -0.23046,-0.0011 -0.46093,-0.0019 -0.69838,-0.0029 -2.17046,-0.01001 -4.34081,-0.02509 -6.51119,-0.04578 -1.11586,-0.01046 -2.23167,-0.01899 -3.34758,-0.02307 -1.07664,-0.004 -2.15313,-0.01311 -3.2297,-0.02578 -0.41102,-0.0039 -0.82206,-0.006 -1.23309,-0.0062 -0.57522,-5.31e-4 -1.15,-0.0078 -1.72514,-0.01647 -0.32754,-0.0024 -0.65508,-0.0047 -0.99255,-0.0071 -0.79927,-0.137463 -0.79927,-0.137463 -1.31158,-0.6245 -0.39861,-0.808765 -0.25805,-1.309623 -0.0173,-2.16163 0.74829,-0.748445 1.24274,-0.602908 2.29138,-0.614186 0.18088,-0.0026 0.36176,-0.0053 0.54812,-0.008 0.59893,-0.0082 1.19783,-0.01268 1.79679,-0.01716 0.41485,-0.005 0.8297,-0.01014 1.24454,-0.01554 1.09271,-0.01361 2.18542,-0.0241 3.27817,-0.03394 1.11472,-0.01059 2.22941,-0.02414 3.3441,-0.03743 2.18778,-0.02566 4.37559,-0.048 6.56343,-0.06828 -0.24851,-0.227049 -0.49702,-0.4541 -0.75306,-0.688031 -0.32299,-0.305653 -0.64571,-0.611574 -0.96823,-0.917723 -0.16419,-0.148691 -0.32838,-0.297384 -0.49756,-0.450583 -0.85714,-0.824347 -1.19788,-1.178464 -1.34889,-2.396733 0.12517,-0.844263 0.12517,-0.844263 0.40653,-1.357441 0.82579,-0.452944 1.4384,-0.380813 2.36677,-0.281421 z"
     fill="#000000"
     id="path7"
     style="fill:#007bff;fill-opacity:1;stroke-width:0.26484" />
  <path
     d="m 8.9190139,56.040983 c 0.5130789,0.281423 0.5130789,0.281423 0.794445,0.794607 0.1327758,0.895594 0.203604,1.556195 -0.3238423,2.327883 -0.4470971,0.479653 -0.9114539,0.923607 -1.3974555,1.363725 -0.1641956,0.155864 -0.3283913,0.311726 -0.4975625,0.472316 -0.403838,0.382168 -0.8132597,0.758421 -1.223735,1.133451 0.2304693,0.0011 0.4609389,0.0019 0.6983923,0.0029 2.1704734,0.01001 4.3408411,0.02508 6.5112401,0.04579 1.115872,0.01046 2.231688,0.01899 3.347604,0.02307 1.07665,0.004 2.153147,0.01311 3.229729,0.02577 0.411021,0.0039 0.822064,0.006 1.233103,0.0063 0.575217,5.29e-4 1.150006,0.0078 1.72515,0.01647 0.327544,0.0024 0.655089,0.0047 0.992558,0.0071 0.799274,0.137463 0.799274,0.137463 1.311589,0.624505 0.398613,0.80877 0.258053,1.30963 0.01732,2.161645 -0.7483,0.74845 -1.242748,0.602911 -2.291399,0.614189 -0.271322,0.004 -0.271322,0.004 -0.548122,0.008 -0.598935,0.0082 -1.197838,0.01269 -1.796811,0.01716 -0.414851,0.005 -0.8297,0.01014 -1.244545,0.01555 -1.092715,0.01361 -2.185438,0.0241 -3.278193,0.03394 -1.114732,0.01059 -2.229428,0.02412 -3.34413,0.03743 -2.187803,0.02567 -4.3756229,0.04801 -6.5634818,0.06828 0.2485124,0.227051 0.4970247,0.454106 0.7530678,0.688038 0.3229843,0.305653 0.6457144,0.611577 0.9682298,0.917729 0.1641956,0.148693 0.3283912,0.297387 0.4975627,0.450586 C 9.34688,68.721819 9.6876219,69.075938 9.838628,70.294219 9.7134615,71.138487 9.7134615,71.138487 9.4320955,71.651671 8.6063006,72.104617 7.9936872,72.032485 7.0653113,71.933094 6.4152764,71.471275 5.9273195,71.061805 5.37815,70.501147 5.2279489,70.353317 5.0777478,70.205488 4.9229952,70.053178 4.6076282,69.740163 4.2945942,69.424781 3.9837981,69.107222 3.5086015,68.624005 3.0237675,68.152312 2.537078,67.680708 2.2311073,67.374403 1.925755,67.067476 1.6210868,66.759875 1.4762969,66.620177 1.331507,66.480475 1.1823294,66.336544 0.47156528,65.594243 0.07921004,65.029475 0,63.987029 0.09591629,62.724722 0.74040252,62.063904 1.6210868,61.214186 1.7695144,61.064329 1.917942,60.914473 2.0708675,60.760074 2.3846612,60.445937 2.7010964,60.134419 3.0199645,59.825434 3.50605,59.352613 3.9806185,58.870087 4.454918,58.38547 4.7620305,58.080646 5.0697553,57.776439 5.37815,57.472915 5.5897063,57.256932 5.5897063,57.256932 5.8055368,57.036584 6.8347871,56.057197 7.5176384,55.865135 8.9190165,56.040967 Z"
     fill="#000000"
     id="path8"
     style="fill:#007bff;fill-opacity:1;stroke-width:0.264843" />
  <path
     d="m 64.541271,0.01511235 c 0.96564,0.25915816 1.551123,0.87535456 2.230964,1.58025585 0.149826,0.1484565 0.299651,0.2969131 0.454016,0.4498683 0.314071,0.313855 0.625523,0.6303517 0.934443,0.9492819 0.47272,0.4861805 0.955145,0.9608413 1.43966,1.4352331 0.304757,0.3071724 0.608903,0.6149573 0.912363,0.923412 0.143957,0.1410654 0.287917,0.2821304 0.436237,0.4274701 0.73159,0.7691502 0.988128,1.1920034 1.102471,2.260448 C 71.944361,8.8947203 71.944361,8.8947203 71.662998,9.4078994 70.823342,9.8684493 70.241336,9.8065136 69.296232,9.6893202 68.586354,9.2039232 68.034381,8.6032086 67.459093,7.967687 67.303264,7.8034594 67.147432,7.6392317 66.986879,7.4700275 66.604788,7.0661109 66.228616,6.6566091 65.853665,6.2460539 c -0.0011,0.2305144 -0.0019,0.4610286 -0.0029,0.6985282 -0.01001,2.1708966 -0.02508,4.3416879 -0.04578,6.5125089 -0.01046,1.11609 -0.01899,2.232124 -0.02307,3.348257 -0.004,1.076861 -0.01311,2.153567 -0.02577,3.23036 -0.0039,0.4111 -0.006,0.822223 -0.0063,1.233342 -5.29e-4,0.57533 -0.0078,1.150231 -0.01647,1.725486 -0.0035,0.491413 -0.0035,0.491413 -0.0071,0.992754 -0.137433,0.799429 -0.137433,0.799429 -0.624371,1.311844 -0.808601,0.398689 -1.309357,0.258103 -2.161191,0.01731 -0.748292,-0.748444 -0.602785,-1.24299 -0.614061,-2.291847 -0.0026,-0.180914 -0.0053,-0.361829 -0.0081,-0.548227 -0.0082,-0.599052 -0.01268,-1.198071 -0.01716,-1.797161 -0.005,-0.414932 -0.01014,-0.829861 -0.01555,-1.244787 -0.01361,-1.092929 -0.0241,-2.185865 -0.03393,-3.278833 -0.01059,-1.114949 -0.02412,-2.229863 -0.03741,-3.344782 -0.02566,-2.188229 -0.048,-4.3764759 -0.06827,-6.5647612 C 61.919229,6.4946097 61.692223,6.7431704 61.45834,6.9992633 61.152749,7.3223105 60.84689,7.6451038 60.540803,7.967682 60.392143,8.1319096 60.243479,8.2961373 60.090312,8.4653415 59.266201,9.3226663 58.912157,9.6634745 57.694134,9.8145099 56.850043,9.6893191 56.850043,9.6893191 56.336968,9.4078983 55.884117,8.5819425 55.956233,7.9692095 56.055604,7.0406527 c 0.46172,-0.6501615 0.871105,-1.1382135 1.431645,-1.6874903 0.1478,-0.1502302 0.295597,-0.3004608 0.447875,-0.4552435 0.312948,-0.3154286 0.628266,-0.6285234 0.945756,-0.9393802 0.483114,-0.4752892 0.954711,-0.9602176 1.426213,-1.4470019 0.30624,-0.3060303 0.613103,-0.611442 0.920638,-0.9161697 0.13967,-0.1448182 0.27934,-0.2896364 0.423242,-0.438843 0.907782,-0.86956315 1.614088,-1.23842496 2.890314,-1.14141175 z"
     fill="#000000"
     id="path9"
     style="fill:#007bff;fill-opacity:1;stroke-width:0.26484" />
  <path
     d="m 63.783607,45.462139 c 0.06805,0.0473 0.136095,0.09459 0.206202,0.143325 0.124409,0.08783 0.247621,0.177384 0.369279,0.268991 0.178841,0.133834 0.178841,0.133834 0.459553,0.26858 0.429675,-0.0818 0.769756,-0.375677 1.123795,-0.623769 2.397719,-1.633014 5.046544,-2.930479 7.767764,-3.921721 0.06851,-0.02555 0.13703,-0.05111 0.207621,-0.07745 3.045695,-1.130612 6.745038,-1.731446 9.816992,-0.395401 1.695812,0.857458 2.945231,2.207057 3.544658,4.016292 0.58998,2.005059 0.568424,4.405222 0.06445,6.436866 -0.02126,0.08866 -0.04251,0.177315 -0.0644,0.268657 -0.934302,3.816625 -2.678167,7.563275 -4.993325,10.742925 -0.221617,0.293204 -0.221617,0.293204 -0.251885,0.643406 0.07763,0.214317 0.171858,0.382038 0.2973,0.572217 0.04654,0.07165 0.09308,0.143298 0.141029,0.217117 0.05076,0.07752 0.101519,0.155021 0.153811,0.234881 2.323357,3.625182 4.950873,8.211907 5.018869,12.648322 0.01687,0.767762 0.158575,1.12112 0.673043,1.688348 1.032148,1.256951 1.119862,2.859569 1.001459,4.407305 -0.26252,1.54397 -1.185001,2.816593 -2.42125,3.743002 -1.290203,0.827806 -2.808087,1.062385 -4.311867,0.859228 C 81.671901,87.403072 80.682791,87.010436 80.009541,86.347237 79.574544,85.962396 79.1246,85.955835 78.563504,85.916076 74.01851,85.46166 69.777444,83.3653 65.989661,80.907271 c -0.09416,-0.06047 -0.188327,-0.120934 -0.285338,-0.183231 -0.08292,-0.05403 -0.165826,-0.108064 -0.251257,-0.163735 -0.254083,-0.136426 -0.445932,-0.203721 -0.733222,-0.227274 -0.264887,0.144104 -0.496286,0.290096 -0.740963,0.463191 -0.894294,0.604974 -1.816754,1.145008 -2.760375,1.6691 -0.160903,0.08937 -0.321541,0.179219 -0.481819,0.269711 -3.872268,2.179974 -9.02375,4.14147 -13.503571,2.934007 -1.827146,-0.559318 -3.283256,-1.67807 -4.210755,-3.352377 -1.209512,-2.422526 -1.072209,-5.340321 -0.432617,-7.912538 0.02013,-0.08361 0.04025,-0.167211 0.06098,-0.253354 0.890531,-3.621254 2.671032,-7.128033 4.787488,-10.18217 0.05216,-0.07715 0.104318,-0.154304 0.158054,-0.233793 0.04678,-0.06751 0.09356,-0.135036 0.141754,-0.204601 0.105472,-0.188654 0.105472,-0.188654 0.06659,-0.393208 -0.0814,-0.205203 -0.17592,-0.373886 -0.29788,-0.557864 -0.04604,-0.07064 -0.09208,-0.141296 -0.139511,-0.214084 -0.05036,-0.07673 -0.100735,-0.153459 -0.152631,-0.232516 -1.8373,-2.861752 -3.703389,-6.099023 -4.402797,-9.46057 -0.14423,-0.698909 -0.14423,-0.698909 -0.616069,-1.218782 -0.240969,-0.113 -0.474552,-0.214038 -0.721668,-0.309567 -1.198749,-0.474806 -1.958649,-1.709683 -2.477981,-2.820862 -0.469495,-1.250611 -0.461696,-2.918393 0.0058,-4.16799 0.681311,-1.490287 1.670098,-2.601525 3.192704,-3.248925 1.499532,-0.551113 2.936409,-0.503226 4.445776,0 0.241443,-0.05443 0.473404,-0.114841 0.710088,-0.18528 5.394758,-1.588624 12.119813,1.73289 16.433175,4.741576 z M 49.406608,43.475031 c 0.03451,0.100119 0.06903,0.200239 0.104583,0.303391 0.04543,0.133549 0.09084,0.267102 0.136227,0.400667 0.02272,0.06572 0.04547,0.131456 0.06889,0.199174 0.500555,1.480194 0.377989,3.035886 -0.272651,4.451309 -0.322156,0.605263 -0.73685,1.08269 -1.222591,1.562509 -0.05463,0.05681 -0.109267,0.113625 -0.165559,0.172156 -0.632442,0.605887 -1.50201,0.895043 -2.304317,1.211253 0.675149,2.324537 1.644568,4.51769 2.828009,6.626784 0.05199,0.09284 0.103968,0.185671 0.157526,0.28132 0.3545,0.621395 0.744077,1.20848 1.163861,1.787619 0.32742,-0.32101 0.61055,-0.661836 0.889154,-1.025203 0.819032,-1.054249 1.692952,-2.056965 2.601474,-3.034702 0.196552,-0.214727 0.387662,-0.431425 0.577433,-0.651975 0.36823,-0.421397 0.756117,-0.819277 1.152254,-1.214318 0.0717,-0.07182 0.143409,-0.143629 0.217284,-0.217614 0.15057,-0.150667 0.301259,-0.301206 0.452067,-0.451635 0.228841,-0.228357 0.457155,-0.457234 0.685415,-0.686176 0.147326,-0.147288 0.294681,-0.294548 0.442068,-0.441774 0.06723,-0.06743 0.134454,-0.134878 0.203716,-0.20436 0.442303,-0.440276 0.900824,-0.855658 1.374307,-1.262041 0.121133,-0.105662 0.242195,-0.21141 0.363148,-0.317286 1.099729,-0.958191 2.21752,-1.879466 3.391064,-2.745978 -0.364803,-0.305319 -0.745951,-0.561392 -1.154668,-0.802874 -0.06473,-0.0383 -0.129454,-0.0766 -0.196142,-0.11606 -0.138201,-0.08134 -0.276573,-0.162384 -0.415102,-0.243152 -0.136787,-0.07981 -0.273321,-0.160036 -0.40956,-0.240764 -2.958108,-1.747122 -6.572772,-3.383386 -10.081294,-3.346447 -0.111179,0.0011 -0.222358,0.0019 -0.336905,0.0027 -0.123596,0.0019 -0.123596,0.0019 -0.24969,0.0035 z m 18.178295,4.644307 c 0.287325,0.29439 0.572923,0.567799 0.901505,0.815227 0.781993,0.599476 1.537999,1.2286 2.284636,1.871307 0.05401,0.04619 0.108028,0.09238 0.163678,0.139971 1.219098,1.055894 2.370375,2.186758 3.508432,3.328542 0.207865,0.208442 0.416257,0.416341 0.624704,0.624204 0.135105,0.135195 0.270176,0.270421 0.405212,0.405682 0.06094,0.06075 0.121872,0.121492 0.184654,0.18408 0.423997,0.426343 0.821844,0.870985 1.213918,1.326707 0.101,0.115383 0.202092,0.230685 0.30333,0.345855 0.727849,0.832783 1.431449,1.682557 2.124866,2.544149 0.208861,0.25761 0.421439,0.511972 0.63445,0.766151 0.352354,-0.412792 0.620385,-0.852695 0.889157,-1.32165 0.04678,-0.08146 0.09355,-0.162917 0.141749,-0.246845 2.053232,-3.607579 4.421938,-8.155625 3.501318,-12.450886 -0.326074,-1.037861 -0.962131,-1.929418 -1.92033,-2.458023 -4.670041,-2.137927 -11.125925,1.69914 -14.961279,4.125529 z m -3.214701,2.229511 c -0.06497,0.0539 -0.129944,0.107796 -0.196889,0.163328 -0.06824,0.05819 -0.136474,0.11639 -0.206779,0.176353 -0.142895,0.119172 -0.285812,0.238317 -0.428756,0.35743 -0.103322,0.08689 -0.103322,0.08689 -0.208733,0.175532 -0.230893,0.192988 -0.466028,0.380158 -0.702419,0.566351 -1.000053,0.799535 -1.955765,1.639583 -2.890864,2.513558 -0.23387,0.216833 -0.471939,0.429 -0.708981,0.642347 -0.546841,0.500948 -1.074097,1.020394 -1.599245,1.543987 -0.07911,0.07867 -0.158207,0.157328 -0.239708,0.238378 -0.416376,0.417546 -0.816747,0.842827 -1.20129,1.28985 -0.238969,0.275593 -0.48921,0.540225 -0.738671,0.806275 -0.523482,0.563472 -1.013151,1.147625 -1.494276,1.747789 -0.105207,0.128272 -0.210574,0.256415 -0.316067,0.384454 -0.583412,0.709647 -1.152786,1.417559 -1.659837,2.184739 0.286647,0.535913 0.617962,0.991366 1.006477,1.457519 0.05689,0.06905 0.11379,0.138114 0.172409,0.209261 0.11406,0.138422 0.228306,0.27669 0.342745,0.414799 0.137178,0.166095 0.273186,0.333001 0.408349,0.500735 0.425041,0.526346 0.864042,1.035606 1.319454,1.53588 0.183328,0.20204 0.363265,0.406335 0.541831,0.612576 0.800781,0.91731 1.634018,1.799014 2.496479,2.658088 0.153787,0.153281 0.307026,0.307091 0.460234,0.460953 0.480458,0.480875 0.965166,0.952026 1.481996,1.394192 0.236438,0.202315 0.463923,0.413984 0.692459,0.625145 0.533715,0.486293 1.086782,0.942627 1.648643,1.395761 0.128474,0.105527 0.256848,0.211167 0.385149,0.316904 0.709318,0.583173 1.416808,1.152454 2.183523,1.659398 0.672445,-0.411887 1.261436,-0.896915 1.85704,-1.409657 0.270988,-0.233015 0.547983,-0.456874 0.828952,-0.677808 0.425718,-0.337469 0.829338,-0.694758 1.230694,-1.060719 0.200839,-0.182559 0.404001,-0.361438 0.609366,-0.538853 0.986468,-0.861626 1.930327,-1.76608 2.854394,-2.693863 0.166684,-0.167252 0.333897,-0.333965 0.501167,-0.500638 0.555471,-0.555248 1.093881,-1.1165 1.602716,-1.715369 0.143695,-0.158861 0.287711,-0.317432 0.432228,-0.475547 0.42079,-0.466927 0.820467,-0.948129 1.214919,-1.437399 0.149982,-0.185433 0.300885,-0.3701 0.451863,-0.554724 0.113335,-0.138827 0.226667,-0.277656 0.339993,-0.416491 0.07923,-0.0968 0.07923,-0.0968 0.160059,-0.195557 0.103324,-0.126895 0.205942,-0.254368 0.307821,-0.382428 0.108809,-0.135524 0.220218,-0.268977 0.333529,-0.400756 0.15643,-0.189507 0.296511,-0.368485 0.415004,-0.583772 -0.05627,-0.43342 -0.380409,-0.761978 -0.648341,-1.099321 -0.06612,-0.08447 -0.06612,-0.08447 -0.133577,-0.170632 -0.13376,-0.170209 -0.268473,-0.339609 -0.40362,-0.508717 -0.07297,-0.09133 -0.145946,-0.182662 -0.221132,-0.276761 -0.858743,-1.059906 -1.748385,-2.093233 -2.675958,-3.09337 -0.168381,-0.182188 -0.335505,-0.36555 -0.500923,-0.550429 -0.614548,-0.684373 -1.256735,-1.338512 -1.906051,-1.989811 -0.08805,-0.08852 -0.176096,-0.177042 -0.26681,-0.268242 -0.443053,-0.442112 -0.891575,-0.870684 -1.366466,-1.278423 -0.256336,-0.221095 -0.502472,-0.452098 -0.750154,-0.68285 -0.547718,-0.505485 -1.116999,-0.978314 -1.698041,-1.445171 -0.130656,-0.106559 -0.26122,-0.213228 -0.391706,-0.319993 -0.139059,-0.113612 -0.278117,-0.227221 -0.417179,-0.340833 -0.06453,-0.05284 -0.129069,-0.105693 -0.195564,-0.160139 -0.191176,-0.155717 -0.383507,-0.309878 -0.57627,-0.463628 -0.06936,-0.05638 -0.138719,-0.112764 -0.210184,-0.170855 -0.06882,-0.05431 -0.137634,-0.108622 -0.208538,-0.164577 -0.0618,-0.0494 -0.123612,-0.0988 -0.187291,-0.149694 -0.378421,-0.221217 -0.625676,-0.110424 -0.929173,0.145445 z M 49.801791,66.004855 c -0.152874,0.210895 -0.290494,0.420428 -0.426057,0.642298 -0.04285,0.06958 -0.08569,0.139159 -0.129838,0.210848 -0.988205,1.628292 -1.878416,3.314681 -2.605552,5.075755 -0.03128,0.07565 -0.06256,0.151295 -0.09479,0.229235 -0.961011,2.365619 -2.043376,5.774201 -0.991955,8.268858 0.503534,1.048475 1.181492,1.754429 2.272288,2.173925 3.4439,1.155942 7.580007,-0.650619 10.631276,-2.147677 1.304135,-0.661369 2.566008,-1.405594 3.792806,-2.20018 -0.320945,-0.327487 -0.66169,-0.610687 -1.025,-0.889338 C 60.21967,76.58779 59.261416,75.754416 58.319778,74.898205 58.121799,74.719709 57.920565,74.546182 57.717745,74.37325 57.312729,74.021454 56.939131,73.640756 56.562668,73.259049 56.283833,72.977681 56.00119,72.708741 55.698621,72.452536 55.37811,72.179262 55.11023,71.882683 54.838408,71.561656 54.602777,71.295759 54.352275,71.046617 54.099376,70.797384 53.666298,70.368795 53.258383,69.928027 52.864434,69.46338 c -0.08675,-0.100302 -0.173585,-0.200525 -0.260494,-0.30069 -0.658632,-0.76097 -1.299251,-1.535305 -1.931521,-2.318293 -0.04776,-0.059 -0.09551,-0.117985 -0.144717,-0.178764 -0.120874,-0.151342 -0.238361,-0.305375 -0.355432,-0.459673 -0.05705,-0.06636 -0.114108,-0.13273 -0.172891,-0.201105 -0.0652,0 -0.13041,0 -0.197588,0 z m 30.0337,0 c -0.140833,0.138064 -0.140833,0.138064 -0.283649,0.322305 -0.0843,0.103833 -0.0843,0.103833 -0.170309,0.209767 -0.09011,0.112648 -0.09011,0.112648 -0.182032,0.227568 -0.125741,0.154969 -0.251554,0.309881 -0.377427,0.464737 -0.06256,0.07726 -0.125125,0.154513 -0.189585,0.234111 -0.630464,0.774811 -1.281708,1.531255 -1.953806,2.270236 -0.185943,0.205853 -0.367369,0.41481 -0.548006,0.625313 -0.315352,0.362877 -0.652287,0.699775 -0.997211,1.034471 -0.196388,0.201529 -0.379003,0.406435 -0.561899,0.619909 -0.361996,0.41698 -0.752659,0.793387 -1.157754,1.168022 -0.07274,0.06777 -0.145469,0.135551 -0.220409,0.205373 -0.149751,0.139523 -0.299633,0.278913 -0.449641,0.418155 -0.207516,0.193257 -0.413826,0.387699 -0.619689,0.582709 -0.61301,0.579585 -1.230294,1.141706 -1.88984,1.668663 -0.333431,0.27013 -0.657657,0.549938 -0.982164,0.830665 -0.51052,0.440777 -1.028976,0.866903 -1.568373,1.272244 0.43943,0.507135 0.972488,0.791302 1.556024,1.111666 0.101887,0.05653 0.203779,0.113066 0.308759,0.171311 0.205529,0.113696 0.411291,0.226969 0.6173,0.3398 0.242065,0.132793 0.483061,0.267263 0.723742,0.402547 2.000838,1.109725 4.730511,2.520163 7.068864,2.520163 0.0039,-0.05717 0.0078,-0.11434 0.01186,-0.173236 0.152572,-2.118522 0.152572,-2.118522 0.580904,-2.988842 0.03439,-0.07503 0.06877,-0.15005 0.104199,-0.227354 0.689609,-1.377121 1.84927,-2.226762 3.266411,-2.7425 0.383457,-0.125767 0.725524,-0.204393 1.129197,-0.22349 0.08342,-0.0041 0.166832,-0.0083 0.252777,-0.01258 0.08622,-0.0039 0.172435,-0.0077 0.261267,-0.01178 0.13162,-0.0064 0.13162,-0.0064 0.265898,-0.01292 0.215968,-0.01043 0.431953,-0.02055 0.647955,-0.03031 -0.599711,-3.381956 -2.093574,-6.554078 -3.902407,-9.455363 -0.05106,-0.08233 -0.10212,-0.164652 -0.154728,-0.24947 -0.04776,-0.07498 -0.09553,-0.149972 -0.144741,-0.227234 -0.04235,-0.0667 -0.08469,-0.133414 -0.12832,-0.202141 -0.05721,-0.07056 -0.05721,-0.07056 -0.115583,-0.142552 -0.0652,0 -0.130407,0 -0.19759,0 z"
     fill="#000000"
     id="path1-3"
     style="fill:#007bff;fill-opacity:1;stroke-width:0.0988051" />
  <path
     d="m 68.968598,58.99946 c 1.186304,1.149405 1.823854,2.625202 1.88131,4.27262 -0.02521,1.677064 -0.661185,3.136177 -1.838238,4.310267 -1.30217,1.213502 -2.899325,1.516926 -4.624306,1.459249 -1.483309,-0.08605 -2.820244,-0.913001 -3.794636,-1.999926 -1.00006,-1.340416 -1.441845,-2.826143 -1.251103,-4.48687 0.236766,-1.627572 1.056527,-2.982399 2.366773,-3.976857 2.255292,-1.482619 5.178291,-1.312141 7.2602,0.421517 z"
     fill="#000000"
     id="path2-6"
     style="fill:#007bff;fill-opacity:1;stroke-width:0.0993533" />
</svg>
